# xmcd
# 
# Track frame offsets:
#     150
#     26630
#     43377
#     77230
#     110247
#     144912
#     198962
#     225832
# 
# Disc length: 3689
# 
# Revision: 2
# Processed by: cddbd v1.5.2PL0 Copyright (c) Steve Scherf et al.
# Submitted via: BonkEnc v1.0
# 
DISCID=660e6708
DTITLE=avex-CLASSICS - 100 CLASSICS [CD 4] モーツァルト・ベスト！
DYEAR=2005
DGENRE=Classical
TTITLE0=アイネ・クライネ・ハトムジーク 第1楽章
TTITLE1=ピアノ・ソナタ 第11番 第3楽章 〈トルコ行進曲〉
TTITLE2=交響曲 第40番 第1楽章
TTITLE3=クライネット協奏曲 第2楽章
TTITLE4=交響曲 第25番 第1楽章
TTITLE5=キラキラ星変奏曲
TTITLE6=セレナード 第10番 《グラン・パルティータ》 第3楽章
TTITLE7=交響曲 第41番 《ジュピター》 第1楽章
EXTD=YEAR: 2005
EXTT0=
EXTT1=
EXTT2=
EXTT3=
EXTT4=
EXTT5=
EXTT6=
EXTT7=
PLAYORDER=
